<?xml version="1.0" encoding="utf-8"?>
<!-- Generator: Adobe Illustrator 26.3.1, SVG Export Plug-In . SVG Version: 6.00 Build 0)  -->
<svg version="1.1" id="a" xmlns="http://www.w3.org/2000/svg" xmlns:xlink="http://www.w3.org/1999/xlink" x="0px" y="0px"
	 viewBox="0 0 554.4 62" style="enable-background:new 0 0 554.4 62;" xml:space="preserve">
<style type="text/css">
	.st0{fill:#FFFFFF;}
</style>
<path class="st0" d="M45.4,15.3c-1.6-2.1-3.6-3.6-6.1-4.6c-2.5-1-5-1.5-7.3-1.5c-3.1,0-5.8,0.6-8.3,1.7s-4.6,2.6-6.5,4.6
	c-1.8,2-3.2,4.2-4.2,6.8c-1,2.6-1.5,5.4-1.5,8.5c0,3.2,0.5,6.2,1.4,8.8c0.9,2.7,2.3,5,4,6.9c1.8,1.9,3.9,3.4,6.3,4.5
	c2.4,1.1,5.2,1.6,8.2,1.6s6-0.6,8.4-1.9c2.4-1.2,4.4-2.9,5.9-5l8.4,5.9c-2.6,3.3-5.8,5.8-9.6,7.6C41,61.1,36.6,62,31.5,62
	c-4.6,0-8.9-0.8-12.7-2.3c-3.9-1.5-7.2-3.7-10-6.4s-4.9-6-6.5-9.8C0.8,39.6,0,35.4,0,30.8s0.8-9,2.5-12.8s3.9-7,6.8-9.7
	s6.2-4.7,10.1-6.2C23.2,0.7,27.4,0,32,0c1.9,0,3.9,0.2,5.9,0.5c2,0.4,4,0.9,5.9,1.7s3.7,1.7,5.3,2.8c1.7,1.1,3.1,2.4,4.2,4
	L45.4,15.3z"/>
<path class="st0" d="M75.8,1.5h10.5v49.7h25.1v9.3H75.8V1.5z"/>
<path class="st0" d="M153.6,1.5h9.1l25.4,59h-12L170.6,47H145l-5.3,13.5h-11.8L153.6,1.5z M166.9,38l-9.1-24l-9.2,24H166.9z"/>
<path class="st0" d="M215.1,34.9L192.9,1.5h12.8l14.8,24.8l15-24.8h12.2l-22.2,33.4v25.6h-10.5V34.9z"/>
<path class="st0" d="M262.7,1.5h11.5l11.4,43.3h0.2l13-43.3h10.8l12.8,43.3h0.2l11.7-43.3h11.2l-17.2,59H318l-13.8-44.2H304
	l-13.8,44.2H280L262.7,1.5z"/>
<path class="st0" d="M357,30.8c0-4.7,0.8-9,2.4-12.8c1.6-3.8,3.8-7,6.6-9.7s6.1-4.7,10-6.2C379.8,0.7,384,0,388.6,0
	s8.9,0.7,12.8,2.2s7.2,3.5,10.1,6.2s5,5.9,6.6,9.7c1.6,3.8,2.4,8.1,2.4,12.8s-0.8,8.8-2.4,12.6c-1.6,3.8-3.8,7.1-6.6,9.8
	c-2.8,2.8-6.2,4.9-10.1,6.4c-3.9,1.5-8.1,2.3-12.8,2.3s-8.8-0.8-12.6-2.3c-3.9-1.5-7.2-3.7-10-6.4c-2.8-2.8-5-6-6.6-9.8
	C357.8,39.6,357,35.4,357,30.8z M368.4,30.8c0,3.2,0.5,6.1,1.5,8.7c1,2.6,2.4,4.9,4.2,6.9c1.8,2,4,3.5,6.4,4.5s5.2,1.6,8.2,1.6
	s5.8-0.5,8.2-1.6c2.5-1.1,4.6-2.6,6.5-4.5c1.8-1.9,3.2-4.2,4.2-6.9c1-2.6,1.5-5.5,1.5-8.7s-0.5-5.9-1.5-8.5s-2.4-4.9-4.1-6.8
	c-1.8-1.9-3.9-3.5-6.4-4.6s-5.3-1.7-8.3-1.7s-5.8,0.6-8.3,1.7s-4.6,2.6-6.4,4.6c-1.8,2-3.1,4.2-4.1,6.8S368.4,27.8,368.4,30.8
	L368.4,30.8z"/>
<path class="st0" d="M438.9,1.5h20.5c2.8,0,5.5,0.3,8.1,0.9s4.9,1.5,7,2.9s3.6,3.1,4.9,5.2c1.2,2.2,1.8,4.8,1.8,7.9
	c0,4.3-1.2,7.8-3.6,10.5c-2.4,2.7-5.7,4.5-9.9,5.5l15.8,26.2h-12.7l-13.7-25h-7.7v25h-10.5L438.9,1.5L438.9,1.5z M458,26.9
	c1.5,0,3-0.1,4.5-0.3s2.9-0.6,4-1.2s2.2-1.5,3-2.6c0.8-1.1,1.2-2.6,1.2-4.4c0-1.6-0.4-2.9-1.1-4s-1.6-1.9-2.8-2.5s-2.4-1-3.8-1.2
	c-1.4-0.2-2.8-0.3-4.1-0.3h-9.5v16.6H458L458,26.9z"/>
<path class="st0" d="M503,1.5h10.5V27h0.2l24.7-25.5h14.2L525,28.8l29.4,31.8h-14.8l-25.9-29.6h-0.2v29.6H503L503,1.5L503,1.5z"/>
</svg>
